<mxfile host="Electron" modified="2023-05-24T04:04:42.038Z" agent="Mozilla/5.0 (Windows NT 10.0; Win64; x64) AppleWebKit/537.36 (KHTML, like Gecko) draw.io/21.2.8 Chrome/112.0.5615.165 Electron/24.2.0 Safari/537.36" etag="SRPW-sS2_PLdg-piUNRW" version="21.2.8" type="device">
  <diagram id="C5RBs43oDa-KdzZeNtuy" name="Page-1">
    <mxGraphModel dx="1027" dy="1102" grid="1" gridSize="10" guides="1" tooltips="1" connect="1" arrows="1" fold="1" page="1" pageScale="1" pageWidth="827" pageHeight="1169" math="0" shadow="0">
      <root>
        <mxCell id="WIyWlLk6GJQsqaUBKTNV-0" />
        <mxCell id="WIyWlLk6GJQsqaUBKTNV-1" parent="WIyWlLk6GJQsqaUBKTNV-0" />
        <mxCell id="50frxvUoYiC9IGH64aFu-7" value="" style="group" vertex="1" connectable="0" parent="WIyWlLk6GJQsqaUBKTNV-1">
          <mxGeometry x="13" y="610" width="790" height="600" as="geometry" />
        </mxCell>
        <mxCell id="50frxvUoYiC9IGH64aFu-3" value="" style="shape=folder;fontStyle=1;spacingTop=10;tabWidth=40;tabHeight=14;tabPosition=left;html=1;whiteSpace=wrap;" vertex="1" parent="50frxvUoYiC9IGH64aFu-7">
          <mxGeometry width="560" height="540" as="geometry" />
        </mxCell>
        <mxCell id="50frxvUoYiC9IGH64aFu-4" value="Views" style="text;align=center;fontStyle=1;verticalAlign=middle;spacingLeft=3;spacingRight=3;strokeColor=none;rotatable=0;points=[[0,0.5],[1,0.5]];portConstraint=eastwest;html=1;" vertex="1" parent="50frxvUoYiC9IGH64aFu-7">
          <mxGeometry x="237" y="20" width="100.24" height="31.29" as="geometry" />
        </mxCell>
        <mxCell id="50frxvUoYiC9IGH64aFu-121" value="&amp;lt;&amp;lt;abstract&amp;gt;&amp;gt;&lt;br&gt;ViewHandler" style="swimlane;fontStyle=1;align=center;verticalAlign=top;childLayout=stackLayout;horizontal=1;startSize=40;horizontalStack=0;resizeParent=1;resizeParentMax=0;resizeLast=0;collapsible=1;marginBottom=0;whiteSpace=wrap;html=1;" vertex="1" parent="50frxvUoYiC9IGH64aFu-7">
          <mxGeometry x="27" y="260" width="210" height="260" as="geometry" />
        </mxCell>
        <mxCell id="50frxvUoYiC9IGH64aFu-122" value="- filename : String" style="text;strokeColor=none;fillColor=none;align=left;verticalAlign=top;spacingLeft=4;spacingRight=4;overflow=hidden;rotatable=0;points=[[0,0.5],[1,0.5]];portConstraint=eastwest;whiteSpace=wrap;html=1;" vertex="1" parent="50frxvUoYiC9IGH64aFu-121">
          <mxGeometry y="40" width="210" height="26" as="geometry" />
        </mxCell>
        <mxCell id="50frxvUoYiC9IGH64aFu-125" value="- content : String" style="text;strokeColor=none;fillColor=none;align=left;verticalAlign=top;spacingLeft=4;spacingRight=4;overflow=hidden;rotatable=0;points=[[0,0.5],[1,0.5]];portConstraint=eastwest;whiteSpace=wrap;html=1;" vertex="1" parent="50frxvUoYiC9IGH64aFu-121">
          <mxGeometry y="66" width="210" height="26" as="geometry" />
        </mxCell>
        <mxCell id="50frxvUoYiC9IGH64aFu-123" value="" style="line;strokeWidth=1;fillColor=none;align=left;verticalAlign=middle;spacingTop=-1;spacingLeft=3;spacingRight=3;rotatable=0;labelPosition=right;points=[];portConstraint=eastwest;strokeColor=inherit;" vertex="1" parent="50frxvUoYiC9IGH64aFu-121">
          <mxGeometry y="92" width="210" height="8" as="geometry" />
        </mxCell>
        <mxCell id="50frxvUoYiC9IGH64aFu-124" value="# __construct(String) : void" style="text;strokeColor=none;fillColor=none;align=left;verticalAlign=top;spacingLeft=4;spacingRight=4;overflow=hidden;rotatable=0;points=[[0,0.5],[1,0.5]];portConstraint=eastwest;whiteSpace=wrap;html=1;" vertex="1" parent="50frxvUoYiC9IGH64aFu-121">
          <mxGeometry y="100" width="210" height="26" as="geometry" />
        </mxCell>
        <mxCell id="50frxvUoYiC9IGH64aFu-126" value="# clear() : void" style="text;strokeColor=none;fillColor=none;align=left;verticalAlign=top;spacingLeft=4;spacingRight=4;overflow=hidden;rotatable=0;points=[[0,0.5],[1,0.5]];portConstraint=eastwest;whiteSpace=wrap;html=1;" vertex="1" parent="50frxvUoYiC9IGH64aFu-121">
          <mxGeometry y="126" width="210" height="26" as="geometry" />
        </mxCell>
        <mxCell id="50frxvUoYiC9IGH64aFu-127" value="# write() : void" style="text;strokeColor=none;fillColor=none;align=left;verticalAlign=top;spacingLeft=4;spacingRight=4;overflow=hidden;rotatable=0;points=[[0,0.5],[1,0.5]];portConstraint=eastwest;whiteSpace=wrap;html=1;" vertex="1" parent="50frxvUoYiC9IGH64aFu-121">
          <mxGeometry y="152" width="210" height="26" as="geometry" />
        </mxCell>
        <mxCell id="50frxvUoYiC9IGH64aFu-128" value="# getContent() : String" style="text;strokeColor=none;fillColor=none;align=left;verticalAlign=top;spacingLeft=4;spacingRight=4;overflow=hidden;rotatable=0;points=[[0,0.5],[1,0.5]];portConstraint=eastwest;whiteSpace=wrap;html=1;" vertex="1" parent="50frxvUoYiC9IGH64aFu-121">
          <mxGeometry y="178" width="210" height="26" as="geometry" />
        </mxCell>
        <mxCell id="50frxvUoYiC9IGH64aFu-129" value="# replace(map&amp;lt;String, String&amp;gt;) : void" style="text;strokeColor=none;fillColor=none;align=left;verticalAlign=top;spacingLeft=4;spacingRight=4;overflow=hidden;rotatable=0;points=[[0,0.5],[1,0.5]];portConstraint=eastwest;whiteSpace=wrap;html=1;" vertex="1" parent="50frxvUoYiC9IGH64aFu-121">
          <mxGeometry y="204" width="210" height="30" as="geometry" />
        </mxCell>
        <mxCell id="50frxvUoYiC9IGH64aFu-135" value="+ abstract render(arr[ ]) : void" style="text;strokeColor=none;fillColor=none;align=left;verticalAlign=top;spacingLeft=4;spacingRight=4;overflow=hidden;rotatable=0;points=[[0,0.5],[1,0.5]];portConstraint=eastwest;whiteSpace=wrap;html=1;" vertex="1" parent="50frxvUoYiC9IGH64aFu-121">
          <mxGeometry y="234" width="210" height="26" as="geometry" />
        </mxCell>
        <mxCell id="50frxvUoYiC9IGH64aFu-131" value="skins" style="shape=umlFrame;whiteSpace=wrap;html=1;pointerEvents=0;" vertex="1" parent="50frxvUoYiC9IGH64aFu-7">
          <mxGeometry x="27" y="70" width="173" height="170" as="geometry" />
        </mxCell>
        <mxCell id="50frxvUoYiC9IGH64aFu-132" value="figureForm.skin.html" style="shape=module;align=left;spacingLeft=20;align=center;verticalAlign=top;whiteSpace=wrap;html=1;" vertex="1" parent="50frxvUoYiC9IGH64aFu-7">
          <mxGeometry x="37" y="110" width="143" height="30" as="geometry" />
        </mxCell>
        <mxCell id="50frxvUoYiC9IGH64aFu-133" value="index.skin.html" style="shape=module;align=left;spacingLeft=20;align=center;verticalAlign=top;whiteSpace=wrap;html=1;" vertex="1" parent="50frxvUoYiC9IGH64aFu-7">
          <mxGeometry x="37" y="190" width="143" height="30" as="geometry" />
        </mxCell>
        <mxCell id="50frxvUoYiC9IGH64aFu-134" value="table.skin.html" style="shape=module;align=left;spacingLeft=20;align=center;verticalAlign=top;whiteSpace=wrap;html=1;" vertex="1" parent="50frxvUoYiC9IGH64aFu-7">
          <mxGeometry x="37" y="150" width="143" height="30" as="geometry" />
        </mxCell>
        <mxCell id="50frxvUoYiC9IGH64aFu-136" value="addForm.view" style="swimlane;fontStyle=1;align=center;verticalAlign=top;childLayout=stackLayout;horizontal=1;startSize=26;horizontalStack=0;resizeParent=1;resizeParentMax=0;resizeLast=0;collapsible=1;marginBottom=0;whiteSpace=wrap;html=1;" vertex="1" parent="50frxvUoYiC9IGH64aFu-7">
          <mxGeometry x="357" y="51.29" width="160" height="86" as="geometry" />
        </mxCell>
        <mxCell id="50frxvUoYiC9IGH64aFu-138" value="" style="line;strokeWidth=1;fillColor=none;align=left;verticalAlign=middle;spacingTop=-1;spacingLeft=3;spacingRight=3;rotatable=0;labelPosition=right;points=[];portConstraint=eastwest;strokeColor=inherit;" vertex="1" parent="50frxvUoYiC9IGH64aFu-136">
          <mxGeometry y="26" width="160" height="8" as="geometry" />
        </mxCell>
        <mxCell id="50frxvUoYiC9IGH64aFu-139" value="+ __construct (String) : void" style="text;strokeColor=none;fillColor=none;align=left;verticalAlign=top;spacingLeft=4;spacingRight=4;overflow=hidden;rotatable=0;points=[[0,0.5],[1,0.5]];portConstraint=eastwest;whiteSpace=wrap;html=1;" vertex="1" parent="50frxvUoYiC9IGH64aFu-136">
          <mxGeometry y="34" width="160" height="26" as="geometry" />
        </mxCell>
        <mxCell id="50frxvUoYiC9IGH64aFu-141" value="+ render(arr [ ] ) : void" style="text;strokeColor=none;fillColor=none;align=left;verticalAlign=top;spacingLeft=4;spacingRight=4;overflow=hidden;rotatable=0;points=[[0,0.5],[1,0.5]];portConstraint=eastwest;whiteSpace=wrap;html=1;" vertex="1" parent="50frxvUoYiC9IGH64aFu-136">
          <mxGeometry y="60" width="160" height="26" as="geometry" />
        </mxCell>
        <mxCell id="50frxvUoYiC9IGH64aFu-140" value="Use" style="endArrow=open;endSize=12;dashed=1;html=1;rounded=0;entryX=1;entryY=0.5;entryDx=0;entryDy=0;edgeStyle=orthogonalEdgeStyle;" edge="1" parent="50frxvUoYiC9IGH64aFu-7" source="50frxvUoYiC9IGH64aFu-136" target="50frxvUoYiC9IGH64aFu-132">
          <mxGeometry width="160" relative="1" as="geometry">
            <mxPoint x="257" y="220" as="sourcePoint" />
            <mxPoint x="417" y="220" as="targetPoint" />
            <Array as="points">
              <mxPoint x="257" y="90" />
              <mxPoint x="257" y="125" />
            </Array>
          </mxGeometry>
        </mxCell>
        <mxCell id="50frxvUoYiC9IGH64aFu-150" value="manufacturer.view" style="swimlane;fontStyle=1;align=center;verticalAlign=top;childLayout=stackLayout;horizontal=1;startSize=26;horizontalStack=0;resizeParent=1;resizeParentMax=0;resizeLast=0;collapsible=1;marginBottom=0;whiteSpace=wrap;html=1;" vertex="1" parent="50frxvUoYiC9IGH64aFu-7">
          <mxGeometry x="357" y="250" width="160" height="86" as="geometry" />
        </mxCell>
        <mxCell id="50frxvUoYiC9IGH64aFu-151" value="" style="line;strokeWidth=1;fillColor=none;align=left;verticalAlign=middle;spacingTop=-1;spacingLeft=3;spacingRight=3;rotatable=0;labelPosition=right;points=[];portConstraint=eastwest;strokeColor=inherit;" vertex="1" parent="50frxvUoYiC9IGH64aFu-150">
          <mxGeometry y="26" width="160" height="8" as="geometry" />
        </mxCell>
        <mxCell id="50frxvUoYiC9IGH64aFu-152" value="+ __construct (String) : void" style="text;strokeColor=none;fillColor=none;align=left;verticalAlign=top;spacingLeft=4;spacingRight=4;overflow=hidden;rotatable=0;points=[[0,0.5],[1,0.5]];portConstraint=eastwest;whiteSpace=wrap;html=1;" vertex="1" parent="50frxvUoYiC9IGH64aFu-150">
          <mxGeometry y="34" width="160" height="26" as="geometry" />
        </mxCell>
        <mxCell id="50frxvUoYiC9IGH64aFu-153" value="+ render(arr [ ] ) : void" style="text;strokeColor=none;fillColor=none;align=left;verticalAlign=top;spacingLeft=4;spacingRight=4;overflow=hidden;rotatable=0;points=[[0,0.5],[1,0.5]];portConstraint=eastwest;whiteSpace=wrap;html=1;" vertex="1" parent="50frxvUoYiC9IGH64aFu-150">
          <mxGeometry y="60" width="160" height="26" as="geometry" />
        </mxCell>
        <mxCell id="50frxvUoYiC9IGH64aFu-146" value="index.view" style="swimlane;fontStyle=1;align=center;verticalAlign=top;childLayout=stackLayout;horizontal=1;startSize=26;horizontalStack=0;resizeParent=1;resizeParentMax=0;resizeLast=0;collapsible=1;marginBottom=0;whiteSpace=wrap;html=1;" vertex="1" parent="50frxvUoYiC9IGH64aFu-7">
          <mxGeometry x="357" y="440" width="160" height="86" as="geometry" />
        </mxCell>
        <mxCell id="50frxvUoYiC9IGH64aFu-147" value="" style="line;strokeWidth=1;fillColor=none;align=left;verticalAlign=middle;spacingTop=-1;spacingLeft=3;spacingRight=3;rotatable=0;labelPosition=right;points=[];portConstraint=eastwest;strokeColor=inherit;" vertex="1" parent="50frxvUoYiC9IGH64aFu-146">
          <mxGeometry y="26" width="160" height="8" as="geometry" />
        </mxCell>
        <mxCell id="50frxvUoYiC9IGH64aFu-148" value="+ __construct (String) : void" style="text;strokeColor=none;fillColor=none;align=left;verticalAlign=top;spacingLeft=4;spacingRight=4;overflow=hidden;rotatable=0;points=[[0,0.5],[1,0.5]];portConstraint=eastwest;whiteSpace=wrap;html=1;" vertex="1" parent="50frxvUoYiC9IGH64aFu-146">
          <mxGeometry y="34" width="160" height="26" as="geometry" />
        </mxCell>
        <mxCell id="50frxvUoYiC9IGH64aFu-149" value="+ render(arr [ ] ) : void" style="text;strokeColor=none;fillColor=none;align=left;verticalAlign=top;spacingLeft=4;spacingRight=4;overflow=hidden;rotatable=0;points=[[0,0.5],[1,0.5]];portConstraint=eastwest;whiteSpace=wrap;html=1;" vertex="1" parent="50frxvUoYiC9IGH64aFu-146">
          <mxGeometry y="60" width="160" height="26" as="geometry" />
        </mxCell>
        <mxCell id="50frxvUoYiC9IGH64aFu-142" value="updateForm.view" style="swimlane;fontStyle=1;align=center;verticalAlign=top;childLayout=stackLayout;horizontal=1;startSize=26;horizontalStack=0;resizeParent=1;resizeParentMax=0;resizeLast=0;collapsible=1;marginBottom=0;whiteSpace=wrap;html=1;" vertex="1" parent="50frxvUoYiC9IGH64aFu-7">
          <mxGeometry x="357" y="150" width="160" height="86" as="geometry" />
        </mxCell>
        <mxCell id="50frxvUoYiC9IGH64aFu-143" value="" style="line;strokeWidth=1;fillColor=none;align=left;verticalAlign=middle;spacingTop=-1;spacingLeft=3;spacingRight=3;rotatable=0;labelPosition=right;points=[];portConstraint=eastwest;strokeColor=inherit;" vertex="1" parent="50frxvUoYiC9IGH64aFu-142">
          <mxGeometry y="26" width="160" height="8" as="geometry" />
        </mxCell>
        <mxCell id="50frxvUoYiC9IGH64aFu-144" value="+ __construct (String) : void" style="text;strokeColor=none;fillColor=none;align=left;verticalAlign=top;spacingLeft=4;spacingRight=4;overflow=hidden;rotatable=0;points=[[0,0.5],[1,0.5]];portConstraint=eastwest;whiteSpace=wrap;html=1;" vertex="1" parent="50frxvUoYiC9IGH64aFu-142">
          <mxGeometry y="34" width="160" height="26" as="geometry" />
        </mxCell>
        <mxCell id="50frxvUoYiC9IGH64aFu-145" value="+ render(arr [ ] ) : void" style="text;strokeColor=none;fillColor=none;align=left;verticalAlign=top;spacingLeft=4;spacingRight=4;overflow=hidden;rotatable=0;points=[[0,0.5],[1,0.5]];portConstraint=eastwest;whiteSpace=wrap;html=1;" vertex="1" parent="50frxvUoYiC9IGH64aFu-142">
          <mxGeometry y="60" width="160" height="26" as="geometry" />
        </mxCell>
        <mxCell id="50frxvUoYiC9IGH64aFu-156" value="Use" style="endArrow=open;endSize=12;dashed=1;html=1;rounded=0;edgeStyle=elbowEdgeStyle;exitX=0;exitY=0.5;exitDx=0;exitDy=0;" edge="1" parent="50frxvUoYiC9IGH64aFu-7" source="50frxvUoYiC9IGH64aFu-145" target="50frxvUoYiC9IGH64aFu-132">
          <mxGeometry width="160" relative="1" as="geometry">
            <mxPoint x="367" y="100" as="sourcePoint" />
            <mxPoint x="190" y="135" as="targetPoint" />
            <Array as="points">
              <mxPoint x="227" y="180" />
            </Array>
          </mxGeometry>
        </mxCell>
        <mxCell id="50frxvUoYiC9IGH64aFu-158" value="Use" style="endArrow=open;endSize=12;dashed=1;html=1;rounded=0;edgeStyle=elbowEdgeStyle;" edge="1" parent="50frxvUoYiC9IGH64aFu-7" source="50frxvUoYiC9IGH64aFu-146" target="50frxvUoYiC9IGH64aFu-133">
          <mxGeometry width="160" relative="1" as="geometry">
            <mxPoint x="367" y="227" as="sourcePoint" />
            <mxPoint x="190" y="135" as="targetPoint" />
            <Array as="points">
              <mxPoint x="337" y="370" />
            </Array>
          </mxGeometry>
        </mxCell>
        <mxCell id="50frxvUoYiC9IGH64aFu-160" value="Use" style="endArrow=open;endSize=12;dashed=1;html=1;rounded=0;edgeStyle=elbowEdgeStyle;" edge="1" parent="50frxvUoYiC9IGH64aFu-7" source="50frxvUoYiC9IGH64aFu-150" target="50frxvUoYiC9IGH64aFu-134">
          <mxGeometry width="160" relative="1" as="geometry">
            <mxPoint x="367" y="333" as="sourcePoint" />
            <mxPoint x="190" y="175" as="targetPoint" />
            <Array as="points">
              <mxPoint x="247" y="240" />
            </Array>
          </mxGeometry>
        </mxCell>
        <mxCell id="50frxvUoYiC9IGH64aFu-161" value="figure_type.view" style="swimlane;fontStyle=1;align=center;verticalAlign=top;childLayout=stackLayout;horizontal=1;startSize=26;horizontalStack=0;resizeParent=1;resizeParentMax=0;resizeLast=0;collapsible=1;marginBottom=0;whiteSpace=wrap;html=1;" vertex="1" parent="50frxvUoYiC9IGH64aFu-7">
          <mxGeometry x="357" y="347" width="160" height="86" as="geometry" />
        </mxCell>
        <mxCell id="50frxvUoYiC9IGH64aFu-162" value="" style="line;strokeWidth=1;fillColor=none;align=left;verticalAlign=middle;spacingTop=-1;spacingLeft=3;spacingRight=3;rotatable=0;labelPosition=right;points=[];portConstraint=eastwest;strokeColor=inherit;" vertex="1" parent="50frxvUoYiC9IGH64aFu-161">
          <mxGeometry y="26" width="160" height="8" as="geometry" />
        </mxCell>
        <mxCell id="50frxvUoYiC9IGH64aFu-163" value="+ __construct (String) : void" style="text;strokeColor=none;fillColor=none;align=left;verticalAlign=top;spacingLeft=4;spacingRight=4;overflow=hidden;rotatable=0;points=[[0,0.5],[1,0.5]];portConstraint=eastwest;whiteSpace=wrap;html=1;" vertex="1" parent="50frxvUoYiC9IGH64aFu-161">
          <mxGeometry y="34" width="160" height="26" as="geometry" />
        </mxCell>
        <mxCell id="50frxvUoYiC9IGH64aFu-164" value="+ render(arr [ ] ) : void" style="text;strokeColor=none;fillColor=none;align=left;verticalAlign=top;spacingLeft=4;spacingRight=4;overflow=hidden;rotatable=0;points=[[0,0.5],[1,0.5]];portConstraint=eastwest;whiteSpace=wrap;html=1;" vertex="1" parent="50frxvUoYiC9IGH64aFu-161">
          <mxGeometry y="60" width="160" height="26" as="geometry" />
        </mxCell>
        <mxCell id="50frxvUoYiC9IGH64aFu-165" value="Use" style="endArrow=open;endSize=12;dashed=1;html=1;rounded=0;edgeStyle=elbowEdgeStyle;" edge="1" parent="50frxvUoYiC9IGH64aFu-7" source="50frxvUoYiC9IGH64aFu-161" target="50frxvUoYiC9IGH64aFu-134">
          <mxGeometry width="160" relative="1" as="geometry">
            <mxPoint x="367" y="333" as="sourcePoint" />
            <mxPoint x="190" y="175" as="targetPoint" />
            <Array as="points">
              <mxPoint x="317" y="300" />
            </Array>
          </mxGeometry>
        </mxCell>
        <mxCell id="50frxvUoYiC9IGH64aFu-166" value="" style="endArrow=block;endSize=16;endFill=0;html=1;rounded=0;edgeStyle=orthogonalEdgeStyle;" edge="1" parent="50frxvUoYiC9IGH64aFu-7" source="50frxvUoYiC9IGH64aFu-136" target="50frxvUoYiC9IGH64aFu-135">
          <mxGeometry width="160" relative="1" as="geometry">
            <mxPoint x="257" y="220" as="sourcePoint" />
            <mxPoint x="417" y="220" as="targetPoint" />
            <Array as="points">
              <mxPoint x="277" y="113" />
              <mxPoint x="277" y="507" />
            </Array>
          </mxGeometry>
        </mxCell>
        <mxCell id="50frxvUoYiC9IGH64aFu-170" value="" style="endArrow=block;endSize=16;endFill=0;html=1;rounded=0;entryX=1;entryY=0.5;entryDx=0;entryDy=0;edgeStyle=orthogonalEdgeStyle;" edge="1" parent="50frxvUoYiC9IGH64aFu-7" source="50frxvUoYiC9IGH64aFu-142" target="50frxvUoYiC9IGH64aFu-135">
          <mxGeometry x="0.1366" width="160" relative="1" as="geometry">
            <mxPoint x="257" y="220" as="sourcePoint" />
            <mxPoint x="417" y="220" as="targetPoint" />
            <Array as="points">
              <mxPoint x="277" y="217" />
              <mxPoint x="277" y="507" />
            </Array>
            <mxPoint y="1" as="offset" />
          </mxGeometry>
        </mxCell>
        <mxCell id="50frxvUoYiC9IGH64aFu-171" value="Extends" style="endArrow=block;endSize=16;endFill=0;html=1;rounded=0;edgeStyle=orthogonalEdgeStyle;" edge="1" parent="50frxvUoYiC9IGH64aFu-7" source="50frxvUoYiC9IGH64aFu-150" target="50frxvUoYiC9IGH64aFu-135">
          <mxGeometry width="160" relative="1" as="geometry">
            <mxPoint x="257" y="220" as="sourcePoint" />
            <mxPoint x="417" y="220" as="targetPoint" />
            <Array as="points">
              <mxPoint x="277" y="323" />
              <mxPoint x="277" y="507" />
            </Array>
          </mxGeometry>
        </mxCell>
        <mxCell id="50frxvUoYiC9IGH64aFu-172" value="" style="endArrow=block;endSize=16;endFill=0;html=1;rounded=0;edgeStyle=orthogonalEdgeStyle;" edge="1" parent="50frxvUoYiC9IGH64aFu-7" source="50frxvUoYiC9IGH64aFu-161">
          <mxGeometry width="160" relative="1" as="geometry">
            <mxPoint x="257" y="220" as="sourcePoint" />
            <mxPoint x="237" y="510" as="targetPoint" />
            <Array as="points">
              <mxPoint x="277" y="420" />
              <mxPoint x="277" y="510" />
            </Array>
          </mxGeometry>
        </mxCell>
        <mxCell id="50frxvUoYiC9IGH64aFu-173" value="Extends" style="endArrow=block;endSize=16;endFill=0;html=1;rounded=0;edgeStyle=orthogonalEdgeStyle;entryX=1;entryY=0.5;entryDx=0;entryDy=0;" edge="1" parent="50frxvUoYiC9IGH64aFu-7" source="50frxvUoYiC9IGH64aFu-146" target="50frxvUoYiC9IGH64aFu-135">
          <mxGeometry width="160" relative="1" as="geometry">
            <mxPoint x="247" y="350" as="sourcePoint" />
            <mxPoint x="407" y="350" as="targetPoint" />
            <Array as="points">
              <mxPoint x="277" y="510" />
              <mxPoint x="277" y="507" />
            </Array>
          </mxGeometry>
        </mxCell>
        <mxCell id="50frxvUoYiC9IGH64aFu-9" value="" style="group" vertex="1" connectable="0" parent="WIyWlLk6GJQsqaUBKTNV-1">
          <mxGeometry x="13" y="20" width="960" height="610" as="geometry" />
        </mxCell>
        <mxCell id="50frxvUoYiC9IGH64aFu-10" value="" style="shape=folder;fontStyle=1;spacingTop=10;tabWidth=40;tabHeight=14;tabPosition=left;html=1;whiteSpace=wrap;" vertex="1" parent="50frxvUoYiC9IGH64aFu-9">
          <mxGeometry width="800" height="570" as="geometry" />
        </mxCell>
        <mxCell id="50frxvUoYiC9IGH64aFu-11" value="Models" style="text;align=center;fontStyle=1;verticalAlign=middle;spacingLeft=3;spacingRight=3;strokeColor=none;rotatable=0;points=[[0,0.5],[1,0.5]];portConstraint=eastwest;html=1;" vertex="1" parent="50frxvUoYiC9IGH64aFu-9">
          <mxGeometry x="323.80952380952385" y="21.402473118279566" width="152.38095238095238" height="51.16129032258064" as="geometry" />
        </mxCell>
        <mxCell id="50frxvUoYiC9IGH64aFu-13" value="Database" style="swimlane;fontStyle=1;align=center;verticalAlign=top;childLayout=stackLayout;horizontal=1;startSize=26;horizontalStack=0;resizeParent=1;resizeParentMax=0;resizeLast=0;collapsible=1;marginBottom=0;whiteSpace=wrap;html=1;" vertex="1" parent="50frxvUoYiC9IGH64aFu-9">
          <mxGeometry x="30" y="38.73015873015872" width="270.95" height="281.617173579109" as="geometry" />
        </mxCell>
        <mxCell id="50frxvUoYiC9IGH64aFu-14" value="- hostname : String" style="text;strokeColor=none;fillColor=none;align=left;verticalAlign=top;spacingLeft=4;spacingRight=4;overflow=hidden;rotatable=0;points=[[0,0.5],[1,0.5]];portConstraint=eastwest;whiteSpace=wrap;html=1;" vertex="1" parent="50frxvUoYiC9IGH64aFu-13">
          <mxGeometry y="26" width="270.95" height="23.23809523809523" as="geometry" />
        </mxCell>
        <mxCell id="50frxvUoYiC9IGH64aFu-17" value="- username : String" style="text;strokeColor=none;fillColor=none;align=left;verticalAlign=top;spacingLeft=4;spacingRight=4;overflow=hidden;rotatable=0;points=[[0,0.5],[1,0.5]];portConstraint=eastwest;whiteSpace=wrap;html=1;" vertex="1" parent="50frxvUoYiC9IGH64aFu-13">
          <mxGeometry y="49.23809523809523" width="270.95" height="16.91539682539682" as="geometry" />
        </mxCell>
        <mxCell id="50frxvUoYiC9IGH64aFu-18" value="- dbpass : String" style="text;strokeColor=none;fillColor=none;align=left;verticalAlign=top;spacingLeft=4;spacingRight=4;overflow=hidden;rotatable=0;points=[[0,0.5],[1,0.5]];portConstraint=eastwest;whiteSpace=wrap;html=1;" vertex="1" parent="50frxvUoYiC9IGH64aFu-13">
          <mxGeometry y="66.15349206349205" width="270.95" height="19.36507936507936" as="geometry" />
        </mxCell>
        <mxCell id="50frxvUoYiC9IGH64aFu-19" value="- dbname : String" style="text;strokeColor=none;fillColor=none;align=left;verticalAlign=top;spacingLeft=4;spacingRight=4;overflow=hidden;rotatable=0;points=[[0,0.5],[1,0.5]];portConstraint=eastwest;whiteSpace=wrap;html=1;" vertex="1" parent="50frxvUoYiC9IGH64aFu-13">
          <mxGeometry y="85.51857142857142" width="270.95" height="19.36507936507936" as="geometry" />
        </mxCell>
        <mxCell id="50frxvUoYiC9IGH64aFu-20" value="- mysqli : Mysqli" style="text;strokeColor=none;fillColor=none;align=left;verticalAlign=top;spacingLeft=4;spacingRight=4;overflow=hidden;rotatable=0;points=[[0,0.5],[1,0.5]];portConstraint=eastwest;whiteSpace=wrap;html=1;" vertex="1" parent="50frxvUoYiC9IGH64aFu-13">
          <mxGeometry y="104.88365079365079" width="270.95" height="21.21444444444444" as="geometry" />
        </mxCell>
        <mxCell id="50frxvUoYiC9IGH64aFu-22" value="- result : Mysqli_result" style="text;strokeColor=none;fillColor=none;align=left;verticalAlign=top;spacingLeft=4;spacingRight=4;overflow=hidden;rotatable=0;points=[[0,0.5],[1,0.5]];portConstraint=eastwest;whiteSpace=wrap;html=1;" vertex="1" parent="50frxvUoYiC9IGH64aFu-13">
          <mxGeometry y="126.09809523809523" width="270.95" height="19.36507936507936" as="geometry" />
        </mxCell>
        <mxCell id="50frxvUoYiC9IGH64aFu-15" value="" style="line;strokeWidth=1;fillColor=none;align=left;verticalAlign=middle;spacingTop=-1;spacingLeft=3;spacingRight=3;rotatable=0;labelPosition=right;points=[];portConstraint=eastwest;strokeColor=inherit;" vertex="1" parent="50frxvUoYiC9IGH64aFu-13">
          <mxGeometry y="145.4631746031746" width="270.95" height="15.74193548387096" as="geometry" />
        </mxCell>
        <mxCell id="50frxvUoYiC9IGH64aFu-16" value="&lt;font style=&quot;font-size: 12px;&quot;&gt;+ __construct(String, String, String, String): void&lt;/font&gt;" style="text;strokeColor=none;fillColor=none;align=left;verticalAlign=top;spacingLeft=4;spacingRight=4;overflow=hidden;rotatable=0;points=[[0,0.5],[1,0.5]];portConstraint=eastwest;whiteSpace=wrap;html=1;" vertex="1" parent="50frxvUoYiC9IGH64aFu-13">
          <mxGeometry y="161.20511008704557" width="270.95" height="23.58666666666666" as="geometry" />
        </mxCell>
        <mxCell id="50frxvUoYiC9IGH64aFu-28" value="+ open() : void" style="text;strokeColor=none;fillColor=none;align=left;verticalAlign=top;spacingLeft=4;spacingRight=4;overflow=hidden;rotatable=0;points=[[0,0.5],[1,0.5]];portConstraint=eastwest;whiteSpace=wrap;html=1;" vertex="1" parent="50frxvUoYiC9IGH64aFu-13">
          <mxGeometry y="184.7917767537122" width="270.95" height="19.36507936507936" as="geometry" />
        </mxCell>
        <mxCell id="50frxvUoYiC9IGH64aFu-24" value="# execute(String) : void" style="text;strokeColor=none;fillColor=none;align=left;verticalAlign=top;spacingLeft=4;spacingRight=4;overflow=hidden;rotatable=0;points=[[0,0.5],[1,0.5]];portConstraint=eastwest;whiteSpace=wrap;html=1;" vertex="1" parent="50frxvUoYiC9IGH64aFu-13">
          <mxGeometry y="204.15685611879158" width="270.95" height="19.36507936507936" as="geometry" />
        </mxCell>
        <mxCell id="50frxvUoYiC9IGH64aFu-25" value="# getResult() : this.result" style="text;strokeColor=none;fillColor=none;align=left;verticalAlign=top;spacingLeft=4;spacingRight=4;overflow=hidden;rotatable=0;points=[[0,0.5],[1,0.5]];portConstraint=eastwest;whiteSpace=wrap;html=1;" vertex="1" parent="50frxvUoYiC9IGH64aFu-13">
          <mxGeometry y="223.52193548387095" width="270.95" height="19.36507936507936" as="geometry" />
        </mxCell>
        <mxCell id="50frxvUoYiC9IGH64aFu-26" value="# executeAffected(String) : int" style="text;strokeColor=none;fillColor=none;align=left;verticalAlign=top;spacingLeft=4;spacingRight=4;overflow=hidden;rotatable=0;points=[[0,0.5],[1,0.5]];portConstraint=eastwest;whiteSpace=wrap;html=1;" vertex="1" parent="50frxvUoYiC9IGH64aFu-13">
          <mxGeometry y="242.88701484895032" width="270.95" height="19.36507936507936" as="geometry" />
        </mxCell>
        <mxCell id="50frxvUoYiC9IGH64aFu-27" value="+ close() : void" style="text;strokeColor=none;fillColor=none;align=left;verticalAlign=top;spacingLeft=4;spacingRight=4;overflow=hidden;rotatable=0;points=[[0,0.5],[1,0.5]];portConstraint=eastwest;whiteSpace=wrap;html=1;" vertex="1" parent="50frxvUoYiC9IGH64aFu-13">
          <mxGeometry y="262.2520942140297" width="270.95" height="19.36507936507936" as="geometry" />
        </mxCell>
        <mxCell id="50frxvUoYiC9IGH64aFu-29" value="&lt;p style=&quot;margin:0px;margin-top:4px;text-align:center;&quot;&gt;&lt;i&gt;&amp;lt;&amp;lt;Interface&amp;gt;&amp;gt;&lt;/i&gt;&lt;br&gt;&lt;b&gt;SQLTable&lt;/b&gt;&lt;/p&gt;&lt;hr size=&quot;1&quot;&gt;&lt;p style=&quot;margin:0px;margin-left:4px;&quot;&gt;+ getAll(String, String) : [ ]&lt;/p&gt;&lt;p style=&quot;margin:0px;margin-left:4px;&quot;&gt;+ getById (int) : [ ]&lt;/p&gt;&lt;p style=&quot;margin:0px;margin-left:4px;&quot;&gt;+ insert (arr) : int&lt;/p&gt;&lt;p style=&quot;margin:0px;margin-left:4px;&quot;&gt;+ delete (int) : int&lt;/p&gt;&lt;p style=&quot;margin:0px;margin-left:4px;&quot;&gt;+ update (int, arr[ ]) : int&lt;/p&gt;" style="verticalAlign=top;align=left;overflow=fill;fontSize=12;fontFamily=Helvetica;html=1;whiteSpace=wrap;" vertex="1" parent="50frxvUoYiC9IGH64aFu-9">
          <mxGeometry x="323.81" y="67.77777777777777" width="190" height="116.19047619047616" as="geometry" />
        </mxCell>
        <mxCell id="50frxvUoYiC9IGH64aFu-31" value="&lt;p style=&quot;margin:0px;margin-top:4px;text-align:center;&quot;&gt;&lt;i&gt;&amp;lt;&amp;lt;Interface&amp;gt;&amp;gt;&lt;/i&gt;&lt;br&gt;&lt;b&gt;SQLViewTable&lt;/b&gt;&lt;/p&gt;&lt;hr size=&quot;1&quot;&gt;&lt;p style=&quot;margin:0px;margin-left:4px;&quot;&gt;+ getAll(String, String) : [ ]&lt;/p&gt;&lt;p style=&quot;margin:0px;margin-left:4px;&quot;&gt;+ getById (int) : [ ]&lt;/p&gt;" style="verticalAlign=top;align=left;overflow=fill;fontSize=12;fontFamily=Helvetica;html=1;whiteSpace=wrap;" vertex="1" parent="50frxvUoYiC9IGH64aFu-9">
          <mxGeometry x="30" y="329.2063492063492" width="190" height="77.46031746031744" as="geometry" />
        </mxCell>
        <mxCell id="50frxvUoYiC9IGH64aFu-32" value="modelFigureInfo" style="swimlane;fontStyle=1;align=center;verticalAlign=top;childLayout=stackLayout;horizontal=1;startSize=26;horizontalStack=0;resizeParent=1;resizeParentMax=0;resizeLast=0;collapsible=1;marginBottom=0;whiteSpace=wrap;html=1;" vertex="1" parent="50frxvUoYiC9IGH64aFu-9">
          <mxGeometry x="240" y="329.2063492063492" width="160" height="223.52380952380943" as="geometry" />
        </mxCell>
        <mxCell id="50frxvUoYiC9IGH64aFu-33" value="- id : int" style="text;strokeColor=none;fillColor=none;align=left;verticalAlign=top;spacingLeft=4;spacingRight=4;overflow=hidden;rotatable=0;points=[[0,0.5],[1,0.5]];portConstraint=eastwest;whiteSpace=wrap;html=1;" vertex="1" parent="50frxvUoYiC9IGH64aFu-32">
          <mxGeometry y="26" width="160" height="25.174603174603167" as="geometry" />
        </mxCell>
        <mxCell id="50frxvUoYiC9IGH64aFu-39" value="- name : String" style="text;strokeColor=none;fillColor=none;align=left;verticalAlign=top;spacingLeft=4;spacingRight=4;overflow=hidden;rotatable=0;points=[[0,0.5],[1,0.5]];portConstraint=eastwest;whiteSpace=wrap;html=1;" vertex="1" parent="50frxvUoYiC9IGH64aFu-32">
          <mxGeometry y="51.17460317460316" width="160" height="25.174603174603167" as="geometry" />
        </mxCell>
        <mxCell id="50frxvUoYiC9IGH64aFu-40" value="- img : String" style="text;strokeColor=none;fillColor=none;align=left;verticalAlign=top;spacingLeft=4;spacingRight=4;overflow=hidden;rotatable=0;points=[[0,0.5],[1,0.5]];portConstraint=eastwest;whiteSpace=wrap;html=1;" vertex="1" parent="50frxvUoYiC9IGH64aFu-32">
          <mxGeometry y="76.34920634920633" width="160" height="25.174603174603167" as="geometry" />
        </mxCell>
        <mxCell id="50frxvUoYiC9IGH64aFu-41" value="- type : String" style="text;strokeColor=none;fillColor=none;align=left;verticalAlign=top;spacingLeft=4;spacingRight=4;overflow=hidden;rotatable=0;points=[[0,0.5],[1,0.5]];portConstraint=eastwest;whiteSpace=wrap;html=1;" vertex="1" parent="50frxvUoYiC9IGH64aFu-32">
          <mxGeometry y="101.52380952380949" width="160" height="25.174603174603167" as="geometry" />
        </mxCell>
        <mxCell id="50frxvUoYiC9IGH64aFu-42" value="- manufacturer : String" style="text;strokeColor=none;fillColor=none;align=left;verticalAlign=top;spacingLeft=4;spacingRight=4;overflow=hidden;rotatable=0;points=[[0,0.5],[1,0.5]];portConstraint=eastwest;whiteSpace=wrap;html=1;" vertex="1" parent="50frxvUoYiC9IGH64aFu-32">
          <mxGeometry y="126.69841269841265" width="160" height="25.174603174603167" as="geometry" />
        </mxCell>
        <mxCell id="50frxvUoYiC9IGH64aFu-43" value="- man_logo : String" style="text;strokeColor=none;fillColor=none;align=left;verticalAlign=top;spacingLeft=4;spacingRight=4;overflow=hidden;rotatable=0;points=[[0,0.5],[1,0.5]];portConstraint=eastwest;whiteSpace=wrap;html=1;" vertex="1" parent="50frxvUoYiC9IGH64aFu-32">
          <mxGeometry y="151.87301587301582" width="160" height="25.174603174603167" as="geometry" />
        </mxCell>
        <mxCell id="50frxvUoYiC9IGH64aFu-34" value="" style="line;strokeWidth=1;fillColor=none;align=left;verticalAlign=middle;spacingTop=-1;spacingLeft=3;spacingRight=3;rotatable=0;labelPosition=right;points=[];portConstraint=eastwest;strokeColor=inherit;" vertex="1" parent="50frxvUoYiC9IGH64aFu-32">
          <mxGeometry y="177.04761904761898" width="160" height="7.746031746031743" as="geometry" />
        </mxCell>
        <mxCell id="50frxvUoYiC9IGH64aFu-35" value="implements all interface func" style="text;strokeColor=none;fillColor=none;align=left;verticalAlign=top;spacingLeft=4;spacingRight=4;overflow=hidden;rotatable=0;points=[[0,0.5],[1,0.5]];portConstraint=eastwest;whiteSpace=wrap;html=1;" vertex="1" parent="50frxvUoYiC9IGH64aFu-32">
          <mxGeometry y="184.79365079365073" width="160" height="38.73015873015871" as="geometry" />
        </mxCell>
        <mxCell id="50frxvUoYiC9IGH64aFu-37" value="" style="endArrow=block;dashed=1;endFill=0;endSize=12;html=1;rounded=0;edgeStyle=elbowEdgeStyle;" edge="1" parent="50frxvUoYiC9IGH64aFu-9" source="50frxvUoYiC9IGH64aFu-43" target="50frxvUoYiC9IGH64aFu-31">
          <mxGeometry width="160" relative="1" as="geometry">
            <mxPoint x="200" y="280.7936507936507" as="sourcePoint" />
            <mxPoint x="360" y="280.7936507936507" as="targetPoint" />
            <Array as="points">
              <mxPoint x="137" y="455.07936507936495" />
            </Array>
          </mxGeometry>
        </mxCell>
        <mxCell id="50frxvUoYiC9IGH64aFu-38" value="Extends" style="endArrow=block;endSize=16;endFill=0;html=1;rounded=0;edgeStyle=orthogonalEdgeStyle;" edge="1" parent="50frxvUoYiC9IGH64aFu-9" source="50frxvUoYiC9IGH64aFu-32" target="50frxvUoYiC9IGH64aFu-13">
          <mxGeometry x="-0.0297" width="160" relative="1" as="geometry">
            <mxPoint x="200" y="280.7936507936507" as="sourcePoint" />
            <mxPoint x="360" y="280.7936507936507" as="targetPoint" />
            <Array as="points">
              <mxPoint x="347" y="290.4761904761904" />
            </Array>
            <mxPoint as="offset" />
          </mxGeometry>
        </mxCell>
        <mxCell id="50frxvUoYiC9IGH64aFu-44" value="modelFigure" style="swimlane;fontStyle=1;align=center;verticalAlign=top;childLayout=stackLayout;horizontal=1;startSize=26;horizontalStack=0;resizeParent=1;resizeParentMax=0;resizeLast=0;collapsible=1;marginBottom=0;whiteSpace=wrap;html=1;" vertex="1" parent="50frxvUoYiC9IGH64aFu-9">
          <mxGeometry x="407" y="329.2109523809523" width="160" height="198.34920634920633" as="geometry" />
        </mxCell>
        <mxCell id="50frxvUoYiC9IGH64aFu-45" value="- id : int" style="text;strokeColor=none;fillColor=none;align=left;verticalAlign=top;spacingLeft=4;spacingRight=4;overflow=hidden;rotatable=0;points=[[0,0.5],[1,0.5]];portConstraint=eastwest;whiteSpace=wrap;html=1;" vertex="1" parent="50frxvUoYiC9IGH64aFu-44">
          <mxGeometry y="26" width="160" height="25.17460317460317" as="geometry" />
        </mxCell>
        <mxCell id="50frxvUoYiC9IGH64aFu-48" value="- name : String" style="text;strokeColor=none;fillColor=none;align=left;verticalAlign=top;spacingLeft=4;spacingRight=4;overflow=hidden;rotatable=0;points=[[0,0.5],[1,0.5]];portConstraint=eastwest;whiteSpace=wrap;html=1;" vertex="1" parent="50frxvUoYiC9IGH64aFu-44">
          <mxGeometry y="51.17460317460317" width="160" height="25.17460317460317" as="geometry" />
        </mxCell>
        <mxCell id="50frxvUoYiC9IGH64aFu-49" value="- img : String" style="text;strokeColor=none;fillColor=none;align=left;verticalAlign=top;spacingLeft=4;spacingRight=4;overflow=hidden;rotatable=0;points=[[0,0.5],[1,0.5]];portConstraint=eastwest;whiteSpace=wrap;html=1;" vertex="1" parent="50frxvUoYiC9IGH64aFu-44">
          <mxGeometry y="76.34920634920634" width="160" height="25.17460317460317" as="geometry" />
        </mxCell>
        <mxCell id="50frxvUoYiC9IGH64aFu-50" value="- type : int" style="text;strokeColor=none;fillColor=none;align=left;verticalAlign=top;spacingLeft=4;spacingRight=4;overflow=hidden;rotatable=0;points=[[0,0.5],[1,0.5]];portConstraint=eastwest;whiteSpace=wrap;html=1;" vertex="1" parent="50frxvUoYiC9IGH64aFu-44">
          <mxGeometry y="101.52380952380952" width="160" height="25.17460317460317" as="geometry" />
        </mxCell>
        <mxCell id="50frxvUoYiC9IGH64aFu-51" value="- man : int" style="text;strokeColor=none;fillColor=none;align=left;verticalAlign=top;spacingLeft=4;spacingRight=4;overflow=hidden;rotatable=0;points=[[0,0.5],[1,0.5]];portConstraint=eastwest;whiteSpace=wrap;html=1;" vertex="1" parent="50frxvUoYiC9IGH64aFu-44">
          <mxGeometry y="126.69841269841268" width="160" height="25.17460317460317" as="geometry" />
        </mxCell>
        <mxCell id="50frxvUoYiC9IGH64aFu-46" value="" style="line;strokeWidth=1;fillColor=none;align=left;verticalAlign=middle;spacingTop=-1;spacingLeft=3;spacingRight=3;rotatable=0;labelPosition=right;points=[];portConstraint=eastwest;strokeColor=inherit;" vertex="1" parent="50frxvUoYiC9IGH64aFu-44">
          <mxGeometry y="151.87301587301585" width="160" height="7.746031746031744" as="geometry" />
        </mxCell>
        <mxCell id="50frxvUoYiC9IGH64aFu-47" value="implements all interface func" style="text;strokeColor=none;fillColor=none;align=left;verticalAlign=top;spacingLeft=4;spacingRight=4;overflow=hidden;rotatable=0;points=[[0,0.5],[1,0.5]];portConstraint=eastwest;whiteSpace=wrap;html=1;" vertex="1" parent="50frxvUoYiC9IGH64aFu-44">
          <mxGeometry y="159.6190476190476" width="160" height="38.73015873015872" as="geometry" />
        </mxCell>
        <mxCell id="50frxvUoYiC9IGH64aFu-52" value="Extends" style="endArrow=block;endSize=16;endFill=0;html=1;rounded=0;edgeStyle=orthogonalEdgeStyle;exitX=0.25;exitY=0;exitDx=0;exitDy=0;entryX=1;entryY=0.5;entryDx=0;entryDy=0;" edge="1" parent="50frxvUoYiC9IGH64aFu-9" source="50frxvUoYiC9IGH64aFu-44" target="50frxvUoYiC9IGH64aFu-25">
          <mxGeometry x="-0.0297" width="160" relative="1" as="geometry">
            <mxPoint x="357" y="338.88888888888886" as="sourcePoint" />
            <mxPoint x="311" y="300.15873015873007" as="targetPoint" />
            <Array as="points">
              <mxPoint x="447" y="271.1111111111111" />
            </Array>
            <mxPoint as="offset" />
          </mxGeometry>
        </mxCell>
        <mxCell id="50frxvUoYiC9IGH64aFu-53" value="" style="endArrow=block;dashed=1;endFill=0;endSize=12;html=1;rounded=0;edgeStyle=elbowEdgeStyle;" edge="1" parent="50frxvUoYiC9IGH64aFu-9" source="50frxvUoYiC9IGH64aFu-44" target="50frxvUoYiC9IGH64aFu-29">
          <mxGeometry width="160" relative="1" as="geometry">
            <mxPoint x="250" y="502.5238095238094" as="sourcePoint" />
            <mxPoint x="147" y="416.34920634920627" as="targetPoint" />
            <Array as="points">
              <mxPoint x="467" y="193.65079365079362" />
              <mxPoint x="477" y="348.57142857142844" />
            </Array>
          </mxGeometry>
        </mxCell>
        <mxCell id="50frxvUoYiC9IGH64aFu-54" value="modelFigureType" style="swimlane;fontStyle=1;align=center;verticalAlign=top;childLayout=stackLayout;horizontal=1;startSize=26;horizontalStack=0;resizeParent=1;resizeParentMax=0;resizeLast=0;collapsible=1;marginBottom=0;whiteSpace=wrap;html=1;" vertex="1" parent="50frxvUoYiC9IGH64aFu-9">
          <mxGeometry x="627" y="258.6709523809523" width="160" height="148" as="geometry" />
        </mxCell>
        <mxCell id="50frxvUoYiC9IGH64aFu-55" value="- id : int" style="text;strokeColor=none;fillColor=none;align=left;verticalAlign=top;spacingLeft=4;spacingRight=4;overflow=hidden;rotatable=0;points=[[0,0.5],[1,0.5]];portConstraint=eastwest;whiteSpace=wrap;html=1;" vertex="1" parent="50frxvUoYiC9IGH64aFu-54">
          <mxGeometry y="26" width="160" height="25.17460317460317" as="geometry" />
        </mxCell>
        <mxCell id="50frxvUoYiC9IGH64aFu-56" value="- name : String" style="text;strokeColor=none;fillColor=none;align=left;verticalAlign=top;spacingLeft=4;spacingRight=4;overflow=hidden;rotatable=0;points=[[0,0.5],[1,0.5]];portConstraint=eastwest;whiteSpace=wrap;html=1;" vertex="1" parent="50frxvUoYiC9IGH64aFu-54">
          <mxGeometry y="51.17460317460317" width="160" height="25.17460317460317" as="geometry" />
        </mxCell>
        <mxCell id="50frxvUoYiC9IGH64aFu-57" value="- num_figure : int" style="text;strokeColor=none;fillColor=none;align=left;verticalAlign=top;spacingLeft=4;spacingRight=4;overflow=hidden;rotatable=0;points=[[0,0.5],[1,0.5]];portConstraint=eastwest;whiteSpace=wrap;html=1;" vertex="1" parent="50frxvUoYiC9IGH64aFu-54">
          <mxGeometry y="76.34920634920634" width="160" height="25.17460317460317" as="geometry" />
        </mxCell>
        <mxCell id="50frxvUoYiC9IGH64aFu-60" value="" style="line;strokeWidth=1;fillColor=none;align=left;verticalAlign=middle;spacingTop=-1;spacingLeft=3;spacingRight=3;rotatable=0;labelPosition=right;points=[];portConstraint=eastwest;strokeColor=inherit;" vertex="1" parent="50frxvUoYiC9IGH64aFu-54">
          <mxGeometry y="101.52380952380952" width="160" height="7.746031746031744" as="geometry" />
        </mxCell>
        <mxCell id="50frxvUoYiC9IGH64aFu-61" value="implements all interface func" style="text;strokeColor=none;fillColor=none;align=left;verticalAlign=top;spacingLeft=4;spacingRight=4;overflow=hidden;rotatable=0;points=[[0,0.5],[1,0.5]];portConstraint=eastwest;whiteSpace=wrap;html=1;" vertex="1" parent="50frxvUoYiC9IGH64aFu-54">
          <mxGeometry y="109.26984126984127" width="160" height="38.73015873015872" as="geometry" />
        </mxCell>
        <mxCell id="50frxvUoYiC9IGH64aFu-62" value="Extends" style="endArrow=block;endSize=16;endFill=0;html=1;rounded=0;edgeStyle=orthogonalEdgeStyle;entryX=1;entryY=0.5;entryDx=0;entryDy=0;" edge="1" parent="50frxvUoYiC9IGH64aFu-9" source="50frxvUoYiC9IGH64aFu-54" target="50frxvUoYiC9IGH64aFu-24">
          <mxGeometry x="-0.0297" width="160" relative="1" as="geometry">
            <mxPoint x="457" y="364.06349206349194" as="sourcePoint" />
            <mxPoint x="311" y="280.7936507936507" as="targetPoint" />
            <Array as="points">
              <mxPoint x="587" y="333" />
              <mxPoint x="587" y="253" />
            </Array>
            <mxPoint as="offset" />
          </mxGeometry>
        </mxCell>
        <mxCell id="50frxvUoYiC9IGH64aFu-63" value="" style="endArrow=block;dashed=1;endFill=0;endSize=12;html=1;rounded=0;edgeStyle=elbowEdgeStyle;exitX=0;exitY=0.5;exitDx=0;exitDy=0;entryX=1;entryY=0.75;entryDx=0;entryDy=0;" edge="1" parent="50frxvUoYiC9IGH64aFu-9" source="50frxvUoYiC9IGH64aFu-55" target="50frxvUoYiC9IGH64aFu-29">
          <mxGeometry width="160" relative="1" as="geometry">
            <mxPoint x="477" y="364.06349206349194" as="sourcePoint" />
            <mxPoint x="557" y="77.46031746031744" as="targetPoint" />
            <Array as="points">
              <mxPoint x="547" y="170" />
              <mxPoint x="577" y="180" />
              <mxPoint x="607" y="210" />
              <mxPoint x="617" y="271.1111111111111" />
              <mxPoint x="657" y="251.7460317460317" />
              <mxPoint x="487" y="358.25396825396814" />
            </Array>
          </mxGeometry>
        </mxCell>
        <mxCell id="50frxvUoYiC9IGH64aFu-112" value="modelManufacturer" style="swimlane;fontStyle=1;align=center;verticalAlign=top;childLayout=stackLayout;horizontal=1;startSize=26;horizontalStack=0;resizeParent=1;resizeParentMax=0;resizeLast=0;collapsible=1;marginBottom=0;whiteSpace=wrap;html=1;" vertex="1" parent="50frxvUoYiC9IGH64aFu-9">
          <mxGeometry x="627" y="72.5609523809523" width="160" height="174" as="geometry" />
        </mxCell>
        <mxCell id="50frxvUoYiC9IGH64aFu-113" value="- id : int" style="text;strokeColor=none;fillColor=none;align=left;verticalAlign=top;spacingLeft=4;spacingRight=4;overflow=hidden;rotatable=0;points=[[0,0.5],[1,0.5]];portConstraint=eastwest;whiteSpace=wrap;html=1;" vertex="1" parent="50frxvUoYiC9IGH64aFu-112">
          <mxGeometry y="26" width="160" height="25.17460317460317" as="geometry" />
        </mxCell>
        <mxCell id="50frxvUoYiC9IGH64aFu-114" value="- name : String" style="text;strokeColor=none;fillColor=none;align=left;verticalAlign=top;spacingLeft=4;spacingRight=4;overflow=hidden;rotatable=0;points=[[0,0.5],[1,0.5]];portConstraint=eastwest;whiteSpace=wrap;html=1;" vertex="1" parent="50frxvUoYiC9IGH64aFu-112">
          <mxGeometry y="51.17460317460317" width="160" height="25.17460317460317" as="geometry" />
        </mxCell>
        <mxCell id="50frxvUoYiC9IGH64aFu-118" value="- logo : String" style="text;strokeColor=none;fillColor=none;align=left;verticalAlign=top;spacingLeft=4;spacingRight=4;overflow=hidden;rotatable=0;points=[[0,0.5],[1,0.5]];portConstraint=eastwest;whiteSpace=wrap;html=1;" vertex="1" parent="50frxvUoYiC9IGH64aFu-112">
          <mxGeometry y="76.34920634920634" width="160" height="26" as="geometry" />
        </mxCell>
        <mxCell id="50frxvUoYiC9IGH64aFu-115" value="- num_figure : int" style="text;strokeColor=none;fillColor=none;align=left;verticalAlign=top;spacingLeft=4;spacingRight=4;overflow=hidden;rotatable=0;points=[[0,0.5],[1,0.5]];portConstraint=eastwest;whiteSpace=wrap;html=1;" vertex="1" parent="50frxvUoYiC9IGH64aFu-112">
          <mxGeometry y="102.34920634920634" width="160" height="25.17460317460317" as="geometry" />
        </mxCell>
        <mxCell id="50frxvUoYiC9IGH64aFu-116" value="" style="line;strokeWidth=1;fillColor=none;align=left;verticalAlign=middle;spacingTop=-1;spacingLeft=3;spacingRight=3;rotatable=0;labelPosition=right;points=[];portConstraint=eastwest;strokeColor=inherit;" vertex="1" parent="50frxvUoYiC9IGH64aFu-112">
          <mxGeometry y="127.52380952380952" width="160" height="7.746031746031744" as="geometry" />
        </mxCell>
        <mxCell id="50frxvUoYiC9IGH64aFu-117" value="implements all interface func" style="text;strokeColor=none;fillColor=none;align=left;verticalAlign=top;spacingLeft=4;spacingRight=4;overflow=hidden;rotatable=0;points=[[0,0.5],[1,0.5]];portConstraint=eastwest;whiteSpace=wrap;html=1;" vertex="1" parent="50frxvUoYiC9IGH64aFu-112">
          <mxGeometry y="135.26984126984127" width="160" height="38.73015873015872" as="geometry" />
        </mxCell>
        <mxCell id="50frxvUoYiC9IGH64aFu-119" value="Extends" style="endArrow=block;endSize=16;endFill=0;html=1;rounded=0;edgeStyle=orthogonalEdgeStyle;entryX=1;entryY=0.5;entryDx=0;entryDy=0;exitX=0;exitY=0.5;exitDx=0;exitDy=0;" edge="1" parent="50frxvUoYiC9IGH64aFu-9" source="50frxvUoYiC9IGH64aFu-117" target="50frxvUoYiC9IGH64aFu-28">
          <mxGeometry x="-0.0297" width="160" relative="1" as="geometry">
            <mxPoint x="637" y="343" as="sourcePoint" />
            <mxPoint x="311" y="263" as="targetPoint" />
            <Array as="points">
              <mxPoint x="507" y="227" />
              <mxPoint x="507" y="233" />
            </Array>
            <mxPoint as="offset" />
          </mxGeometry>
        </mxCell>
        <mxCell id="50frxvUoYiC9IGH64aFu-120" value="" style="endArrow=block;dashed=1;endFill=0;endSize=12;html=1;rounded=0;edgeStyle=elbowEdgeStyle;" edge="1" parent="50frxvUoYiC9IGH64aFu-9" source="50frxvUoYiC9IGH64aFu-112" target="50frxvUoYiC9IGH64aFu-29">
          <mxGeometry width="160" relative="1" as="geometry">
            <mxPoint x="637" y="307" as="sourcePoint" />
            <mxPoint x="524" y="165" as="targetPoint" />
            <Array as="points">
              <mxPoint x="577" y="126" />
              <mxPoint x="587" y="190" />
              <mxPoint x="617" y="220" />
              <mxPoint x="627" y="281.1111111111111" />
              <mxPoint x="667" y="261.7460317460317" />
              <mxPoint x="497" y="368.25396825396814" />
            </Array>
          </mxGeometry>
        </mxCell>
        <mxCell id="50frxvUoYiC9IGH64aFu-174" value="Controllers" style="shape=umlFrame;whiteSpace=wrap;html=1;pointerEvents=0;width=80;height=30;" vertex="1" parent="WIyWlLk6GJQsqaUBKTNV-1">
          <mxGeometry x="940" y="40" width="590" height="860" as="geometry" />
        </mxCell>
        <mxCell id="50frxvUoYiC9IGH64aFu-175" value="addForm.controller" style="swimlane;fontStyle=1;align=center;verticalAlign=top;childLayout=stackLayout;horizontal=1;startSize=26;horizontalStack=0;resizeParent=1;resizeParentMax=0;resizeLast=0;collapsible=1;marginBottom=0;whiteSpace=wrap;html=1;" vertex="1" parent="WIyWlLk6GJQsqaUBKTNV-1">
          <mxGeometry x="960" y="90" width="200" height="192" as="geometry" />
        </mxCell>
        <mxCell id="50frxvUoYiC9IGH64aFu-176" value="- mFigures : modelFigure" style="text;strokeColor=none;fillColor=none;align=left;verticalAlign=top;spacingLeft=4;spacingRight=4;overflow=hidden;rotatable=0;points=[[0,0.5],[1,0.5]];portConstraint=eastwest;whiteSpace=wrap;html=1;" vertex="1" parent="50frxvUoYiC9IGH64aFu-175">
          <mxGeometry y="26" width="200" height="26" as="geometry" />
        </mxCell>
        <mxCell id="50frxvUoYiC9IGH64aFu-179" value="- mFigureType : modelFigureType" style="text;strokeColor=none;fillColor=none;align=left;verticalAlign=top;spacingLeft=4;spacingRight=4;overflow=hidden;rotatable=0;points=[[0,0.5],[1,0.5]];portConstraint=eastwest;whiteSpace=wrap;html=1;" vertex="1" parent="50frxvUoYiC9IGH64aFu-175">
          <mxGeometry y="52" width="200" height="28" as="geometry" />
        </mxCell>
        <mxCell id="50frxvUoYiC9IGH64aFu-180" value="- mMan : modelManufacturer" style="text;strokeColor=none;fillColor=none;align=left;verticalAlign=top;spacingLeft=4;spacingRight=4;overflow=hidden;rotatable=0;points=[[0,0.5],[1,0.5]];portConstraint=eastwest;whiteSpace=wrap;html=1;" vertex="1" parent="50frxvUoYiC9IGH64aFu-175">
          <mxGeometry y="80" width="200" height="26" as="geometry" />
        </mxCell>
        <mxCell id="50frxvUoYiC9IGH64aFu-177" value="" style="line;strokeWidth=1;fillColor=none;align=left;verticalAlign=middle;spacingTop=-1;spacingLeft=3;spacingRight=3;rotatable=0;labelPosition=right;points=[];portConstraint=eastwest;strokeColor=inherit;" vertex="1" parent="50frxvUoYiC9IGH64aFu-175">
          <mxGeometry y="106" width="200" height="8" as="geometry" />
        </mxCell>
        <mxCell id="50frxvUoYiC9IGH64aFu-205" value="+ __construct () : void" style="text;strokeColor=none;fillColor=none;align=left;verticalAlign=top;spacingLeft=4;spacingRight=4;overflow=hidden;rotatable=0;points=[[0,0.5],[1,0.5]];portConstraint=eastwest;whiteSpace=wrap;html=1;" vertex="1" parent="50frxvUoYiC9IGH64aFu-175">
          <mxGeometry y="114" width="200" height="26" as="geometry" />
        </mxCell>
        <mxCell id="50frxvUoYiC9IGH64aFu-178" value="+ form() : void" style="text;strokeColor=none;fillColor=none;align=left;verticalAlign=top;spacingLeft=4;spacingRight=4;overflow=hidden;rotatable=0;points=[[0,0.5],[1,0.5]];portConstraint=eastwest;whiteSpace=wrap;html=1;" vertex="1" parent="50frxvUoYiC9IGH64aFu-175">
          <mxGeometry y="140" width="200" height="26" as="geometry" />
        </mxCell>
        <mxCell id="50frxvUoYiC9IGH64aFu-181" value="+ add( arr [ ]) : int" style="text;strokeColor=none;fillColor=none;align=left;verticalAlign=top;spacingLeft=4;spacingRight=4;overflow=hidden;rotatable=0;points=[[0,0.5],[1,0.5]];portConstraint=eastwest;whiteSpace=wrap;html=1;" vertex="1" parent="50frxvUoYiC9IGH64aFu-175">
          <mxGeometry y="166" width="200" height="26" as="geometry" />
        </mxCell>
        <mxCell id="50frxvUoYiC9IGH64aFu-182" value="Use" style="endArrow=open;endSize=12;dashed=1;html=1;rounded=0;edgeStyle=orthogonalEdgeStyle;" edge="1" parent="WIyWlLk6GJQsqaUBKTNV-1" source="50frxvUoYiC9IGH64aFu-175" target="50frxvUoYiC9IGH64aFu-44">
          <mxGeometry width="160" relative="1" as="geometry">
            <mxPoint x="560" y="600" as="sourcePoint" />
            <mxPoint x="720" y="600" as="targetPoint" />
            <Array as="points">
              <mxPoint x="840" y="173" />
              <mxPoint x="840" y="448" />
            </Array>
          </mxGeometry>
        </mxCell>
        <mxCell id="50frxvUoYiC9IGH64aFu-183" value="Use" style="endArrow=open;endSize=12;dashed=1;html=1;rounded=0;edgeStyle=orthogonalEdgeStyle;" edge="1" parent="WIyWlLk6GJQsqaUBKTNV-1" source="50frxvUoYiC9IGH64aFu-175" target="50frxvUoYiC9IGH64aFu-54">
          <mxGeometry x="0.2117" width="160" relative="1" as="geometry">
            <mxPoint x="850" y="700" as="sourcePoint" />
            <mxPoint x="590" y="458" as="targetPoint" />
            <Array as="points">
              <mxPoint x="880" y="240" />
              <mxPoint x="880" y="410" />
            </Array>
            <mxPoint as="offset" />
          </mxGeometry>
        </mxCell>
        <mxCell id="50frxvUoYiC9IGH64aFu-184" value="Use" style="endArrow=open;endSize=12;dashed=1;html=1;rounded=0;edgeStyle=orthogonalEdgeStyle;" edge="1" parent="WIyWlLk6GJQsqaUBKTNV-1" source="50frxvUoYiC9IGH64aFu-175" target="50frxvUoYiC9IGH64aFu-112">
          <mxGeometry width="160" relative="1" as="geometry">
            <mxPoint x="890" y="700" as="sourcePoint" />
            <mxPoint x="810" y="420" as="targetPoint" />
            <Array as="points">
              <mxPoint x="950" y="110" />
              <mxPoint x="950" y="110" />
            </Array>
          </mxGeometry>
        </mxCell>
        <mxCell id="50frxvUoYiC9IGH64aFu-185" value="Use" style="endArrow=open;endSize=12;dashed=1;html=1;rounded=0;edgeStyle=orthogonalEdgeStyle;" edge="1" parent="WIyWlLk6GJQsqaUBKTNV-1" source="50frxvUoYiC9IGH64aFu-175" target="50frxvUoYiC9IGH64aFu-136">
          <mxGeometry width="160" relative="1" as="geometry">
            <mxPoint x="430" y="730" as="sourcePoint" />
            <mxPoint x="590" y="730" as="targetPoint" />
            <Array as="points">
              <mxPoint x="980" y="723" />
            </Array>
          </mxGeometry>
        </mxCell>
        <mxCell id="50frxvUoYiC9IGH64aFu-186" value="Config" style="swimlane;fontStyle=0;childLayout=stackLayout;horizontal=1;startSize=26;fillColor=none;horizontalStack=0;resizeParent=1;resizeParentMax=0;resizeLast=0;collapsible=1;marginBottom=0;whiteSpace=wrap;html=1;" vertex="1" parent="WIyWlLk6GJQsqaUBKTNV-1">
          <mxGeometry x="1250" y="397.91" width="140" height="104" as="geometry" />
        </mxCell>
        <mxCell id="50frxvUoYiC9IGH64aFu-187" value="+ field: type" style="text;strokeColor=none;fillColor=none;align=left;verticalAlign=top;spacingLeft=4;spacingRight=4;overflow=hidden;rotatable=0;points=[[0,0.5],[1,0.5]];portConstraint=eastwest;whiteSpace=wrap;html=1;" vertex="1" parent="50frxvUoYiC9IGH64aFu-186">
          <mxGeometry y="26" width="140" height="26" as="geometry" />
        </mxCell>
        <mxCell id="50frxvUoYiC9IGH64aFu-188" value="+ field: type" style="text;strokeColor=none;fillColor=none;align=left;verticalAlign=top;spacingLeft=4;spacingRight=4;overflow=hidden;rotatable=0;points=[[0,0.5],[1,0.5]];portConstraint=eastwest;whiteSpace=wrap;html=1;" vertex="1" parent="50frxvUoYiC9IGH64aFu-186">
          <mxGeometry y="52" width="140" height="26" as="geometry" />
        </mxCell>
        <mxCell id="50frxvUoYiC9IGH64aFu-189" value="+ field: type" style="text;strokeColor=none;fillColor=none;align=left;verticalAlign=top;spacingLeft=4;spacingRight=4;overflow=hidden;rotatable=0;points=[[0,0.5],[1,0.5]];portConstraint=eastwest;whiteSpace=wrap;html=1;" vertex="1" parent="50frxvUoYiC9IGH64aFu-186">
          <mxGeometry y="78" width="140" height="26" as="geometry" />
        </mxCell>
        <mxCell id="50frxvUoYiC9IGH64aFu-190" value="updateForm.controller" style="swimlane;fontStyle=1;align=center;verticalAlign=top;childLayout=stackLayout;horizontal=1;startSize=26;horizontalStack=0;resizeParent=1;resizeParentMax=0;resizeLast=0;collapsible=1;marginBottom=0;whiteSpace=wrap;html=1;" vertex="1" parent="WIyWlLk6GJQsqaUBKTNV-1">
          <mxGeometry x="1000" y="309.90999999999997" width="200" height="192" as="geometry" />
        </mxCell>
        <mxCell id="50frxvUoYiC9IGH64aFu-191" value="- mFigures : modelFigure" style="text;strokeColor=none;fillColor=none;align=left;verticalAlign=top;spacingLeft=4;spacingRight=4;overflow=hidden;rotatable=0;points=[[0,0.5],[1,0.5]];portConstraint=eastwest;whiteSpace=wrap;html=1;" vertex="1" parent="50frxvUoYiC9IGH64aFu-190">
          <mxGeometry y="26" width="200" height="26" as="geometry" />
        </mxCell>
        <mxCell id="50frxvUoYiC9IGH64aFu-192" value="- mFigureType : modelFigureType" style="text;strokeColor=none;fillColor=none;align=left;verticalAlign=top;spacingLeft=4;spacingRight=4;overflow=hidden;rotatable=0;points=[[0,0.5],[1,0.5]];portConstraint=eastwest;whiteSpace=wrap;html=1;" vertex="1" parent="50frxvUoYiC9IGH64aFu-190">
          <mxGeometry y="52" width="200" height="28" as="geometry" />
        </mxCell>
        <mxCell id="50frxvUoYiC9IGH64aFu-193" value="- mMan : modelManufacturer" style="text;strokeColor=none;fillColor=none;align=left;verticalAlign=top;spacingLeft=4;spacingRight=4;overflow=hidden;rotatable=0;points=[[0,0.5],[1,0.5]];portConstraint=eastwest;whiteSpace=wrap;html=1;" vertex="1" parent="50frxvUoYiC9IGH64aFu-190">
          <mxGeometry y="80" width="200" height="26" as="geometry" />
        </mxCell>
        <mxCell id="50frxvUoYiC9IGH64aFu-194" value="" style="line;strokeWidth=1;fillColor=none;align=left;verticalAlign=middle;spacingTop=-1;spacingLeft=3;spacingRight=3;rotatable=0;labelPosition=right;points=[];portConstraint=eastwest;strokeColor=inherit;" vertex="1" parent="50frxvUoYiC9IGH64aFu-190">
          <mxGeometry y="106" width="200" height="8" as="geometry" />
        </mxCell>
        <mxCell id="50frxvUoYiC9IGH64aFu-206" value="+ __construct() : void" style="text;strokeColor=none;fillColor=none;align=left;verticalAlign=top;spacingLeft=4;spacingRight=4;overflow=hidden;rotatable=0;points=[[0,0.5],[1,0.5]];portConstraint=eastwest;whiteSpace=wrap;html=1;" vertex="1" parent="50frxvUoYiC9IGH64aFu-190">
          <mxGeometry y="114" width="200" height="26" as="geometry" />
        </mxCell>
        <mxCell id="50frxvUoYiC9IGH64aFu-195" value="+ updateForm(int) : void" style="text;strokeColor=none;fillColor=none;align=left;verticalAlign=top;spacingLeft=4;spacingRight=4;overflow=hidden;rotatable=0;points=[[0,0.5],[1,0.5]];portConstraint=eastwest;whiteSpace=wrap;html=1;" vertex="1" parent="50frxvUoYiC9IGH64aFu-190">
          <mxGeometry y="140" width="200" height="26" as="geometry" />
        </mxCell>
        <mxCell id="50frxvUoYiC9IGH64aFu-196" value="+ updateFigure(arr [ ]) : int" style="text;strokeColor=none;fillColor=none;align=left;verticalAlign=top;spacingLeft=4;spacingRight=4;overflow=hidden;rotatable=0;points=[[0,0.5],[1,0.5]];portConstraint=eastwest;whiteSpace=wrap;html=1;" vertex="1" parent="50frxvUoYiC9IGH64aFu-190">
          <mxGeometry y="166" width="200" height="26" as="geometry" />
        </mxCell>
        <mxCell id="50frxvUoYiC9IGH64aFu-197" value="Use" style="endArrow=open;endSize=12;dashed=1;html=1;rounded=0;edgeStyle=orthogonalEdgeStyle;" edge="1" parent="WIyWlLk6GJQsqaUBKTNV-1" source="50frxvUoYiC9IGH64aFu-190" target="50frxvUoYiC9IGH64aFu-142">
          <mxGeometry width="160" relative="1" as="geometry">
            <mxPoint x="790" y="733" as="sourcePoint" />
            <mxPoint x="620" y="780" as="targetPoint" />
            <Array as="points">
              <mxPoint x="1020" y="827" />
            </Array>
          </mxGeometry>
        </mxCell>
        <mxCell id="50frxvUoYiC9IGH64aFu-198" value="Use" style="endArrow=open;endSize=12;dashed=1;html=1;rounded=0;edgeStyle=orthogonalEdgeStyle;entryX=1;entryY=0.957;entryDx=0;entryDy=0;entryPerimeter=0;" edge="1" parent="WIyWlLk6GJQsqaUBKTNV-1" source="50frxvUoYiC9IGH64aFu-190" target="50frxvUoYiC9IGH64aFu-51">
          <mxGeometry width="160" relative="1" as="geometry">
            <mxPoint x="850" y="700" as="sourcePoint" />
            <mxPoint x="590" y="458" as="targetPoint" />
            <Array as="points">
              <mxPoint x="970" y="353" />
              <mxPoint x="970" y="500" />
            </Array>
          </mxGeometry>
        </mxCell>
        <mxCell id="50frxvUoYiC9IGH64aFu-199" value="Use" style="endArrow=open;endSize=12;dashed=1;html=1;rounded=0;edgeStyle=orthogonalEdgeStyle;" edge="1" parent="WIyWlLk6GJQsqaUBKTNV-1" source="50frxvUoYiC9IGH64aFu-190" target="50frxvUoYiC9IGH64aFu-54">
          <mxGeometry width="160" relative="1" as="geometry">
            <mxPoint x="1050" y="700" as="sourcePoint" />
            <mxPoint x="590" y="510" as="targetPoint" />
            <Array as="points">
              <mxPoint x="900" y="310" />
              <mxPoint x="900" y="310" />
            </Array>
          </mxGeometry>
        </mxCell>
        <mxCell id="50frxvUoYiC9IGH64aFu-200" value="Use" style="endArrow=open;endSize=12;dashed=1;html=1;rounded=0;edgeStyle=orthogonalEdgeStyle;entryX=1;entryY=0.5;entryDx=0;entryDy=0;" edge="1" parent="WIyWlLk6GJQsqaUBKTNV-1" source="50frxvUoYiC9IGH64aFu-190" target="50frxvUoYiC9IGH64aFu-113">
          <mxGeometry width="160" relative="1" as="geometry">
            <mxPoint x="1100" y="700" as="sourcePoint" />
            <mxPoint x="810" y="380" as="targetPoint" />
            <Array as="points">
              <mxPoint x="860" y="330" />
              <mxPoint x="860" y="131" />
            </Array>
          </mxGeometry>
        </mxCell>
        <mxCell id="50frxvUoYiC9IGH64aFu-201" value="delete.controller" style="swimlane;fontStyle=1;align=center;verticalAlign=top;childLayout=stackLayout;horizontal=1;startSize=26;horizontalStack=0;resizeParent=1;resizeParentMax=0;resizeLast=0;collapsible=1;marginBottom=0;whiteSpace=wrap;html=1;" vertex="1" parent="WIyWlLk6GJQsqaUBKTNV-1">
          <mxGeometry x="1030" y="510" width="160" height="116" as="geometry" />
        </mxCell>
        <mxCell id="50frxvUoYiC9IGH64aFu-202" value="- mFigure: modelFigure" style="text;strokeColor=none;fillColor=none;align=left;verticalAlign=top;spacingLeft=4;spacingRight=4;overflow=hidden;rotatable=0;points=[[0,0.5],[1,0.5]];portConstraint=eastwest;whiteSpace=wrap;html=1;" vertex="1" parent="50frxvUoYiC9IGH64aFu-201">
          <mxGeometry y="26" width="160" height="26" as="geometry" />
        </mxCell>
        <mxCell id="50frxvUoYiC9IGH64aFu-203" value="" style="line;strokeWidth=1;fillColor=none;align=left;verticalAlign=middle;spacingTop=-1;spacingLeft=3;spacingRight=3;rotatable=0;labelPosition=right;points=[];portConstraint=eastwest;strokeColor=inherit;" vertex="1" parent="50frxvUoYiC9IGH64aFu-201">
          <mxGeometry y="52" width="160" height="8" as="geometry" />
        </mxCell>
        <mxCell id="50frxvUoYiC9IGH64aFu-218" value="+ __construct(): void" style="text;strokeColor=none;fillColor=none;align=left;verticalAlign=top;spacingLeft=4;spacingRight=4;overflow=hidden;rotatable=0;points=[[0,0.5],[1,0.5]];portConstraint=eastwest;whiteSpace=wrap;html=1;" vertex="1" parent="50frxvUoYiC9IGH64aFu-201">
          <mxGeometry y="60" width="160" height="30" as="geometry" />
        </mxCell>
        <mxCell id="50frxvUoYiC9IGH64aFu-204" value="+ delete(int) : void" style="text;strokeColor=none;fillColor=none;align=left;verticalAlign=top;spacingLeft=4;spacingRight=4;overflow=hidden;rotatable=0;points=[[0,0.5],[1,0.5]];portConstraint=eastwest;whiteSpace=wrap;html=1;" vertex="1" parent="50frxvUoYiC9IGH64aFu-201">
          <mxGeometry y="90" width="160" height="26" as="geometry" />
        </mxCell>
        <mxCell id="50frxvUoYiC9IGH64aFu-207" value="Use" style="endArrow=open;endSize=12;dashed=1;html=1;rounded=0;edgeStyle=orthogonalEdgeStyle;" edge="1" parent="WIyWlLk6GJQsqaUBKTNV-1" source="50frxvUoYiC9IGH64aFu-201" target="50frxvUoYiC9IGH64aFu-44">
          <mxGeometry width="160" relative="1" as="geometry">
            <mxPoint x="990" y="292" as="sourcePoint" />
            <mxPoint x="540" y="733" as="targetPoint" />
            <Array as="points">
              <mxPoint x="880" y="553" />
              <mxPoint x="880" y="530" />
            </Array>
          </mxGeometry>
        </mxCell>
        <mxCell id="50frxvUoYiC9IGH64aFu-208" value="manufacturer.controller" style="swimlane;fontStyle=1;align=center;verticalAlign=top;childLayout=stackLayout;horizontal=1;startSize=26;horizontalStack=0;resizeParent=1;resizeParentMax=0;resizeLast=0;collapsible=1;marginBottom=0;whiteSpace=wrap;html=1;" vertex="1" parent="WIyWlLk6GJQsqaUBKTNV-1">
          <mxGeometry x="1030" y="640" width="170" height="112" as="geometry" />
        </mxCell>
        <mxCell id="50frxvUoYiC9IGH64aFu-209" value="- mMan : modelManufacturer" style="text;strokeColor=none;fillColor=none;align=left;verticalAlign=top;spacingLeft=4;spacingRight=4;overflow=hidden;rotatable=0;points=[[0,0.5],[1,0.5]];portConstraint=eastwest;whiteSpace=wrap;html=1;" vertex="1" parent="50frxvUoYiC9IGH64aFu-208">
          <mxGeometry y="26" width="170" height="26" as="geometry" />
        </mxCell>
        <mxCell id="50frxvUoYiC9IGH64aFu-210" value="" style="line;strokeWidth=1;fillColor=none;align=left;verticalAlign=middle;spacingTop=-1;spacingLeft=3;spacingRight=3;rotatable=0;labelPosition=right;points=[];portConstraint=eastwest;strokeColor=inherit;" vertex="1" parent="50frxvUoYiC9IGH64aFu-208">
          <mxGeometry y="52" width="170" height="8" as="geometry" />
        </mxCell>
        <mxCell id="50frxvUoYiC9IGH64aFu-219" value="+ _construct() : void" style="text;strokeColor=none;fillColor=none;align=left;verticalAlign=top;spacingLeft=4;spacingRight=4;overflow=hidden;rotatable=0;points=[[0,0.5],[1,0.5]];portConstraint=eastwest;whiteSpace=wrap;html=1;" vertex="1" parent="50frxvUoYiC9IGH64aFu-208">
          <mxGeometry y="60" width="170" height="26" as="geometry" />
        </mxCell>
        <mxCell id="50frxvUoYiC9IGH64aFu-211" value="+ index(String, String) : void" style="text;strokeColor=none;fillColor=none;align=left;verticalAlign=top;spacingLeft=4;spacingRight=4;overflow=hidden;rotatable=0;points=[[0,0.5],[1,0.5]];portConstraint=eastwest;whiteSpace=wrap;html=1;" vertex="1" parent="50frxvUoYiC9IGH64aFu-208">
          <mxGeometry y="86" width="170" height="26" as="geometry" />
        </mxCell>
        <mxCell id="50frxvUoYiC9IGH64aFu-212" value="Use" style="endArrow=open;endSize=12;dashed=1;html=1;rounded=0;edgeStyle=orthogonalEdgeStyle;" edge="1" parent="WIyWlLk6GJQsqaUBKTNV-1" source="50frxvUoYiC9IGH64aFu-208" target="50frxvUoYiC9IGH64aFu-112">
          <mxGeometry width="160" relative="1" as="geometry">
            <mxPoint x="1040" y="563" as="sourcePoint" />
            <mxPoint x="590" y="540" as="targetPoint" />
            <Array as="points">
              <mxPoint x="920" y="683" />
              <mxPoint x="920" y="210" />
            </Array>
          </mxGeometry>
        </mxCell>
        <mxCell id="50frxvUoYiC9IGH64aFu-213" value="Use" style="endArrow=open;endSize=12;dashed=1;html=1;rounded=0;edgeStyle=orthogonalEdgeStyle;" edge="1" parent="WIyWlLk6GJQsqaUBKTNV-1" source="50frxvUoYiC9IGH64aFu-208" target="50frxvUoYiC9IGH64aFu-150">
          <mxGeometry width="160" relative="1" as="geometry">
            <mxPoint x="1030" y="512" as="sourcePoint" />
            <mxPoint x="540" y="837" as="targetPoint" />
            <Array as="points">
              <mxPoint x="1050" y="930" />
            </Array>
          </mxGeometry>
        </mxCell>
        <mxCell id="50frxvUoYiC9IGH64aFu-214" value="figure_type.controller" style="swimlane;fontStyle=1;align=center;verticalAlign=top;childLayout=stackLayout;horizontal=1;startSize=26;horizontalStack=0;resizeParent=1;resizeParentMax=0;resizeLast=0;collapsible=1;marginBottom=0;whiteSpace=wrap;html=1;" vertex="1" parent="WIyWlLk6GJQsqaUBKTNV-1">
          <mxGeometry x="1071" y="770" width="200" height="112" as="geometry" />
        </mxCell>
        <mxCell id="50frxvUoYiC9IGH64aFu-215" value="- mFigureType modelFigureType" style="text;strokeColor=none;fillColor=none;align=left;verticalAlign=top;spacingLeft=4;spacingRight=4;overflow=hidden;rotatable=0;points=[[0,0.5],[1,0.5]];portConstraint=eastwest;whiteSpace=wrap;html=1;" vertex="1" parent="50frxvUoYiC9IGH64aFu-214">
          <mxGeometry y="26" width="200" height="26" as="geometry" />
        </mxCell>
        <mxCell id="50frxvUoYiC9IGH64aFu-216" value="" style="line;strokeWidth=1;fillColor=none;align=left;verticalAlign=middle;spacingTop=-1;spacingLeft=3;spacingRight=3;rotatable=0;labelPosition=right;points=[];portConstraint=eastwest;strokeColor=inherit;" vertex="1" parent="50frxvUoYiC9IGH64aFu-214">
          <mxGeometry y="52" width="200" height="8" as="geometry" />
        </mxCell>
        <mxCell id="50frxvUoYiC9IGH64aFu-220" value="+ _construct() : void" style="text;strokeColor=none;fillColor=none;align=left;verticalAlign=top;spacingLeft=4;spacingRight=4;overflow=hidden;rotatable=0;points=[[0,0.5],[1,0.5]];portConstraint=eastwest;whiteSpace=wrap;html=1;" vertex="1" parent="50frxvUoYiC9IGH64aFu-214">
          <mxGeometry y="60" width="200" height="26" as="geometry" />
        </mxCell>
        <mxCell id="50frxvUoYiC9IGH64aFu-217" value="+ index(String, String) : void" style="text;strokeColor=none;fillColor=none;align=left;verticalAlign=top;spacingLeft=4;spacingRight=4;overflow=hidden;rotatable=0;points=[[0,0.5],[1,0.5]];portConstraint=eastwest;whiteSpace=wrap;html=1;" vertex="1" parent="50frxvUoYiC9IGH64aFu-214">
          <mxGeometry y="86" width="200" height="26" as="geometry" />
        </mxCell>
        <mxCell id="50frxvUoYiC9IGH64aFu-221" value="Use" style="endArrow=open;endSize=12;dashed=1;html=1;rounded=0;edgeStyle=orthogonalEdgeStyle;exitX=0;exitY=0.5;exitDx=0;exitDy=0;" edge="1" parent="WIyWlLk6GJQsqaUBKTNV-1" source="50frxvUoYiC9IGH64aFu-217" target="50frxvUoYiC9IGH64aFu-54">
          <mxGeometry width="160" relative="1" as="geometry">
            <mxPoint x="1060" y="762" as="sourcePoint" />
            <mxPoint x="540" y="960" as="targetPoint" />
            <Array as="points">
              <mxPoint x="720" y="870" />
            </Array>
          </mxGeometry>
        </mxCell>
        <mxCell id="50frxvUoYiC9IGH64aFu-222" value="Use" style="endArrow=open;endSize=12;dashed=1;html=1;rounded=0;edgeStyle=orthogonalEdgeStyle;" edge="1" parent="WIyWlLk6GJQsqaUBKTNV-1" source="50frxvUoYiC9IGH64aFu-214" target="50frxvUoYiC9IGH64aFu-161">
          <mxGeometry width="160" relative="1" as="geometry">
            <mxPoint x="1081" y="879" as="sourcePoint" />
            <mxPoint x="730" y="437" as="targetPoint" />
            <Array as="points">
              <mxPoint x="1090" y="1020" />
            </Array>
          </mxGeometry>
        </mxCell>
        <mxCell id="50frxvUoYiC9IGH64aFu-223" value="figure.controller" style="swimlane;fontStyle=1;align=center;verticalAlign=top;childLayout=stackLayout;horizontal=1;startSize=26;horizontalStack=0;resizeParent=1;resizeParentMax=0;resizeLast=0;collapsible=1;marginBottom=0;whiteSpace=wrap;html=1;" vertex="1" parent="WIyWlLk6GJQsqaUBKTNV-1">
          <mxGeometry x="1290" y="770" width="230" height="112" as="geometry" />
        </mxCell>
        <mxCell id="50frxvUoYiC9IGH64aFu-224" value="- modelViewFigInfo : modelFigureInfo" style="text;strokeColor=none;fillColor=none;align=left;verticalAlign=top;spacingLeft=4;spacingRight=4;overflow=hidden;rotatable=0;points=[[0,0.5],[1,0.5]];portConstraint=eastwest;whiteSpace=wrap;html=1;" vertex="1" parent="50frxvUoYiC9IGH64aFu-223">
          <mxGeometry y="26" width="230" height="26" as="geometry" />
        </mxCell>
        <mxCell id="50frxvUoYiC9IGH64aFu-225" value="" style="line;strokeWidth=1;fillColor=none;align=left;verticalAlign=middle;spacingTop=-1;spacingLeft=3;spacingRight=3;rotatable=0;labelPosition=right;points=[];portConstraint=eastwest;strokeColor=inherit;" vertex="1" parent="50frxvUoYiC9IGH64aFu-223">
          <mxGeometry y="52" width="230" height="8" as="geometry" />
        </mxCell>
        <mxCell id="50frxvUoYiC9IGH64aFu-226" value="+ _construct() : void" style="text;strokeColor=none;fillColor=none;align=left;verticalAlign=top;spacingLeft=4;spacingRight=4;overflow=hidden;rotatable=0;points=[[0,0.5],[1,0.5]];portConstraint=eastwest;whiteSpace=wrap;html=1;" vertex="1" parent="50frxvUoYiC9IGH64aFu-223">
          <mxGeometry y="60" width="230" height="26" as="geometry" />
        </mxCell>
        <mxCell id="50frxvUoYiC9IGH64aFu-227" value="+ index(String) : void" style="text;strokeColor=none;fillColor=none;align=left;verticalAlign=top;spacingLeft=4;spacingRight=4;overflow=hidden;rotatable=0;points=[[0,0.5],[1,0.5]];portConstraint=eastwest;whiteSpace=wrap;html=1;" vertex="1" parent="50frxvUoYiC9IGH64aFu-223">
          <mxGeometry y="86" width="230" height="26" as="geometry" />
        </mxCell>
        <mxCell id="50frxvUoYiC9IGH64aFu-228" value="Use" style="endArrow=open;endSize=12;dashed=1;html=1;rounded=0;edgeStyle=orthogonalEdgeStyle;" edge="1" parent="WIyWlLk6GJQsqaUBKTNV-1" source="50frxvUoYiC9IGH64aFu-223" target="50frxvUoYiC9IGH64aFu-146">
          <mxGeometry width="160" relative="1" as="geometry">
            <mxPoint x="1100" y="892" as="sourcePoint" />
            <mxPoint x="540" y="1053" as="targetPoint" />
            <Array as="points">
              <mxPoint x="1390" y="1110" />
            </Array>
          </mxGeometry>
        </mxCell>
        <mxCell id="50frxvUoYiC9IGH64aFu-229" value="Use" style="endArrow=open;endSize=12;dashed=1;html=1;rounded=0;edgeStyle=orthogonalEdgeStyle;" edge="1" parent="WIyWlLk6GJQsqaUBKTNV-1" source="50frxvUoYiC9IGH64aFu-223" target="50frxvUoYiC9IGH64aFu-32">
          <mxGeometry width="160" relative="1" as="geometry">
            <mxPoint x="1400" y="892" as="sourcePoint" />
            <mxPoint x="540" y="1160" as="targetPoint" />
            <Array as="points">
              <mxPoint x="1320" y="1000" />
              <mxPoint x="820" y="1000" />
              <mxPoint x="820" y="610" />
              <mxPoint x="333" y="610" />
            </Array>
          </mxGeometry>
        </mxCell>
        <mxCell id="50frxvUoYiC9IGH64aFu-230" value="Use" style="endArrow=open;endSize=12;dashed=1;html=1;rounded=0;edgeStyle=orthogonalEdgeStyle;" edge="1" parent="WIyWlLk6GJQsqaUBKTNV-1" source="50frxvUoYiC9IGH64aFu-175" target="50frxvUoYiC9IGH64aFu-186">
          <mxGeometry width="160" relative="1" as="geometry">
            <mxPoint x="990" y="470" as="sourcePoint" />
            <mxPoint x="1150" y="470" as="targetPoint" />
            <Array as="points">
              <mxPoint x="1270" y="260" />
            </Array>
          </mxGeometry>
        </mxCell>
        <mxCell id="50frxvUoYiC9IGH64aFu-231" value="Use" style="endArrow=open;endSize=12;dashed=1;html=1;rounded=0;" edge="1" parent="WIyWlLk6GJQsqaUBKTNV-1" source="50frxvUoYiC9IGH64aFu-190" target="50frxvUoYiC9IGH64aFu-186">
          <mxGeometry width="160" relative="1" as="geometry">
            <mxPoint x="1170" y="268" as="sourcePoint" />
            <mxPoint x="1330" y="382" as="targetPoint" />
          </mxGeometry>
        </mxCell>
        <mxCell id="50frxvUoYiC9IGH64aFu-232" value="Use" style="endArrow=open;endSize=12;dashed=1;html=1;rounded=0;" edge="1" parent="WIyWlLk6GJQsqaUBKTNV-1" source="50frxvUoYiC9IGH64aFu-201" target="50frxvUoYiC9IGH64aFu-186">
          <mxGeometry width="160" relative="1" as="geometry">
            <mxPoint x="1210" y="421" as="sourcePoint" />
            <mxPoint x="1330" y="428" as="targetPoint" />
          </mxGeometry>
        </mxCell>
        <mxCell id="50frxvUoYiC9IGH64aFu-233" value="Use" style="endArrow=open;endSize=12;dashed=1;html=1;rounded=0;" edge="1" parent="WIyWlLk6GJQsqaUBKTNV-1" source="50frxvUoYiC9IGH64aFu-208" target="50frxvUoYiC9IGH64aFu-186">
          <mxGeometry width="160" relative="1" as="geometry">
            <mxPoint x="1200" y="536" as="sourcePoint" />
            <mxPoint x="1330" y="469" as="targetPoint" />
          </mxGeometry>
        </mxCell>
        <mxCell id="50frxvUoYiC9IGH64aFu-234" value="Use" style="endArrow=open;endSize=12;dashed=1;html=1;rounded=0;" edge="1" parent="WIyWlLk6GJQsqaUBKTNV-1" source="50frxvUoYiC9IGH64aFu-214" target="50frxvUoYiC9IGH64aFu-186">
          <mxGeometry width="160" relative="1" as="geometry">
            <mxPoint x="1181" y="650" as="sourcePoint" />
            <mxPoint x="1348" y="484" as="targetPoint" />
          </mxGeometry>
        </mxCell>
        <mxCell id="50frxvUoYiC9IGH64aFu-235" value="Use" style="endArrow=open;endSize=12;dashed=1;html=1;rounded=0;" edge="1" parent="WIyWlLk6GJQsqaUBKTNV-1" source="50frxvUoYiC9IGH64aFu-223" target="50frxvUoYiC9IGH64aFu-186">
          <mxGeometry width="160" relative="1" as="geometry">
            <mxPoint x="1211" y="780" as="sourcePoint" />
            <mxPoint x="1372" y="484" as="targetPoint" />
          </mxGeometry>
        </mxCell>
      </root>
    </mxGraphModel>
  </diagram>
</mxfile>
